<?xml version="1.0" encoding="UTF-8" standalone="no"?>
<!-- Created with Inkscape (http://www.inkscape.org/) -->

<svg
   xmlns:dc="http://purl.org/dc/elements/1.1/"
   xmlns:cc="http://creativecommons.org/ns#"
   xmlns:rdf="http://www.w3.org/1999/02/22-rdf-syntax-ns#"
   xmlns:svg="http://www.w3.org/2000/svg"
   xmlns="http://www.w3.org/2000/svg"
   xmlns:sodipodi="http://sodipodi.sourceforge.net/DTD/sodipodi-0.dtd"
   xmlns:inkscape="http://www.inkscape.org/namespaces/inkscape"
   width="471.91144"
   height="687.10626"
   id="svg2"
   version="1.1"
   inkscape:version="0.47 r22583"
   sodipodi:docname="New document 1">
  <defs
     id="defs4">
    <inkscape:perspective
       sodipodi:type="inkscape:persp3d"
       inkscape:vp_x="0 : 526.18109 : 1"
       inkscape:vp_y="0 : 1000 : 0"
       inkscape:vp_z="744.09448 : 526.18109 : 1"
       inkscape:persp3d-origin="372.04724 : 350.78739 : 1"
       id="perspective10" />
    <inkscape:perspective
       id="perspective2824"
       inkscape:persp3d-origin="0.5 : 0.33333333 : 1"
       inkscape:vp_z="1 : 0.5 : 1"
       inkscape:vp_y="0 : 1000 : 0"
       inkscape:vp_x="0 : 0.5 : 1"
       sodipodi:type="inkscape:persp3d" />
    <inkscape:perspective
       id="perspective2912"
       inkscape:persp3d-origin="0.5 : 0.33333333 : 1"
       inkscape:vp_z="1 : 0.5 : 1"
       inkscape:vp_y="0 : 1000 : 0"
       inkscape:vp_x="0 : 0.5 : 1"
       sodipodi:type="inkscape:persp3d" />
  </defs>
  <sodipodi:namedview
     id="base"
     pagecolor="#ffffff"
     bordercolor="#666666"
     borderopacity="1.0"
     inkscape:pageopacity="0.0"
     inkscape:pageshadow="2"
     inkscape:zoom="0.73205562"
     inkscape:cx="235.95572"
     inkscape:cy="343.55313"
     inkscape:document-units="px"
     inkscape:current-layer="layer1"
     showgrid="false"
     showguides="true"
     inkscape:guide-bbox="true"
     units="in"
     inkscape:window-width="1280"
     inkscape:window-height="750"
     inkscape:window-x="-8"
     inkscape:window-y="-8"
     inkscape:window-maximized="1" />
  <metadata
     id="metadata7">
    <rdf:RDF>
      <cc:Work
         rdf:about="">
        <dc:format>image/svg+xml</dc:format>
        <dc:type
           rdf:resource="http://purl.org/dc/dcmitype/StillImage" />
        <dc:title></dc:title>
      </cc:Work>
    </rdf:RDF>
  </metadata>
  <g
     inkscape:label="Layer 1"
     inkscape:groupmode="layer"
     id="layer1"
     transform="translate(-38.684848,1.3448239)">
    <path
       style="fill:#000000;stroke:#000000;stroke-width:0.63977826px;stroke-linecap:butt;stroke-linejoin:miter;stroke-opacity:1"
       d="M 194.4375 0.3125 C 194.09928 0.3544247 193.71627 0.80534559 193 1.6875 C 190.91755 4.2521951 189.9934 4.5214002 186.5 3.40625 C 184.80731 2.8659509 183.10292 2.5510539 182.71875 2.71875 C 182.33454 2.886434 182.31728 4.2189798 182.6875 5.65625 C 183.05777 7.0935202 183.51242 9.0729869 183.6875 10.0625 C 183.96763 11.64597 183.92001 11.701123 183.1875 10.65625 C 180.99522 7.5289722 179.09417 5.9037281 177.875 6.03125 C 175.6735 6.2615216 173.83754 8.6089223 173.375 11.84375 C 173.16561 13.307921 172.15148 15.853752 170.96875 17.84375 C 165.33695 20.549379 163.04718 24.998833 153.71875 28.9375 C 142.70625 33.587223 141.49895 36.239014 137.78125 42 C 127.05382 47.365053 121.81347 51.757065 115.90625 59.5625 C 110.68291 66.464291 108.45766 72.406558 108 80.46875 C 107.8038 83.925715 107.32799 87.980296 106.96875 89.5 C 105.92345 93.922122 105.83512 100.20662 106.71875 105.0625 C 108.24892 113.47089 114.78652 125.8614 119.90625 130.0625 C 120.78253 130.78152 122.11634 132.25795 122.875 133.3125 C 124.07415 134.97928 124.08108 135.28208 122.9375 135.78125 C 120.7134 136.75203 121.28252 137.93147 124.03125 138.09375 C 125.46794 138.17865 126.75063 138.29581 126.90625 138.34375 C 128.06653 138.70188 127.78893 145.31981 126.40625 150.21875 C 125.32496 154.05006 125.01488 156.73656 125.5 157.84375 C 126.56527 160.26662 130.21888 162.623 133.5625 163.03125 C 135.13471 163.22316 136.62413 163.69875 136.84375 164.09375 C 137.69469 165.62433 138.44358 168.27074 138.6875 170.53125 C 138.98292 173.26868 141.6421 175.87756 144.34375 176.09375 C 145.6186 176.19572 145.90884 176.51403 145.8125 177.71875 C 145.61426 180.19541 146.36343 181.16246 149.4375 182.25 C 151.86626 183.10927 152.73205 183.90851 154.59375 187.09375 C 157.36963 191.8433 160.12591 193.1507 165.9375 192.53125 C 168.10993 192.29969 169.93702 191.82804 171.9375 190.84375 C 173.85374 192.25713 176.67142 195.22834 177.09375 200.71875 C 177.74061 209.12799 187.63748 210.36108 186.34375 219.09375 C 185.05002 227.82643 170.99382 220.67977 174.875 225.53125 C 178.75619 230.38273 144.32189 213.2892 144.96875 221.375 C 145.61562 229.46081 143.34364 227.536 136.875 231.09375 C 130.40634 234.65151 134.59674 231.38119 126.1875 227.5 C 117.77827 223.61881 121.66398 222.68276 116.8125 219.125 C 111.96101 215.56725 111.6545 218.45937 99.6875 217.8125 C 87.72051 217.16564 86.24029 216.24914 81.84375 219.96875 C 81.49551 220.26338 81.2158 220.60502 81.03125 221 C 80.62894 221.0474 80.24406 221.09662 79.84375 221.15625 C 67.04229 223.06298 57.393165 230.48818 52.25 240.90625 C 47.106835 251.32431 46.427934 264.74964 51.375 278.6875 C 52.474408 281.78499 53.841209 284.78648 55.375 287.65625 C 53.499413 292.86787 52.989025 297.95417 54.09375 302.53125 C 54.02861 303.11202 54.132192 303.66982 54.46875 304.25 C 54.569259 304.42328 54.649344 304.57798 54.75 304.75 C 55.088711 305.65392 55.488757 306.55452 55.96875 307.40625 C 56.584236 308.49841 57.317625 309.49961 58.125 310.4375 C 58.1344 310.4484 58.14685 310.45775 58.15625 310.46875 C 63.018428 318.73767 64.921968 323.85108 49.75 320.03125 C 35.539091 319.03607 41.480924 320.04678 20.78125 316.8125 C 19.367205 316.59155 18.119689 316.38337 17 316.21875 C 16.736802 314.80359 16.399698 313.51008 15.96875 312.40625 C 15.483158 311.16245 14.912516 310.15525 14.25 309.4375 C 13.587484 308.71973 12.846877 308.28125 12.03125 308.28125 C 11.916224 308.28125 11.800229 308.2965 11.6875 308.3125 C 11.254339 307.48176 10.768656 306.74939 10.25 306.1875 C 9.403062 305.26994 8.448916 304.75 7.40625 304.75 C 6.363584 304.75 5.378189 305.26994 4.53125 306.1875 C 3.684312 307.10505 2.933264 308.44122 2.3125 310.03125 C 1.070972 313.21131 0.3125 317.53576 0.3125 322.34375 C 0.3125 327.15174 1.070972 331.50745 2.3125 334.6875 C 2.933264 336.27753 3.684312 337.58244 4.53125 338.5 C 5.378189 339.41756 6.363584 339.96875 7.40625 339.96875 C 8.448916 339.96875 9.403062 339.41756 10.25 338.5 C 10.881961 337.81535 11.463369 336.91901 11.96875 335.84375 C 11.98225 335.84398 12.01768 335.84375 12.03125 335.84375 C 12.846877 335.84375 13.587484 335.4365 14.25 334.71875 C 14.912516 334.00098 15.483158 332.96255 15.96875 331.71875 C 16.184457 331.16624 16.386478 330.57406 16.5625 329.9375 C 32.508769 329.77154 68.44156 354.73948 82.3125 359.1875 C 84.92772 360.11254 86.584422 360.36242 87.59375 360.1875 C 88.284724 361.09038 88.926164 361.95355 89.375 362.75 C 93.58553 370.22149 102.49374 374.09956 113.40625 374.34375 C 124.31875 374.58792 137.2712 371.23353 149.71875 364.21875 C 162.1663 357.20396 171.74448 347.8363 177.1875 338.375 C 182.63051 328.91371 183.96053 319.31523 179.75 311.84375 C 178.96052 310.44284 178.00757 309.17832 176.90625 308.03125 C 177.01386 304.15021 172.96558 303.46882 168.90625 294.15625 C 165.34513 280.05397 158.52457 272.49431 159.84375 273.78125 C 165.44328 280.08831 161.14552 275.4048 174.40625 282.84375 C 187.61212 290.25193 182.52654 296.03646 198.96875 301.625 C 202.39655 301.48097 209.97298 304.56978 214.6875 312.6875 C 218.33712 318.97161 219.77753 329.09113 219.375 337.8125 C 218.4047 358.83561 214.17337 358.8487 209.96875 375.34375 C 205.76413 391.8388 204.80002 392.81281 206.09375 412.21875 C 207.38747 431.62469 207.07498 431.9439 205.78125 441 C 205.78125 441 208.9968 461.05332 204.46875 473.34375 C 199.9407 485.63418 203.50619 497.92048 199.625 508.59375 C 195.74381 519.26701 198.3158 522.83138 209.3125 530.59375 C 220.3092 538.35613 216.60586 535.48208 228.40625 535.78125 C 230.00687 535.82185 228.72814 538.68605 229.375 546.125 C 229.375 546.125 230.0298 574.88294 237.46875 582.96875 C 244.90769 591.05459 251.3783 586.88745 262.375 585.59375 C 273.3717 584.29996 276.29218 578.45163 275.96875 582.65625 C 275.64531 586.86087 280.27063 588.87707 278.21875 621.15625 C 277.98542 624.82736 278.55301 634.78492 271.4375 639.3125 C 263.55032 641.69084 254.54065 648.18748 244.25 648.65625 C 241.80656 648.76808 240.36801 648.83735 238.5625 648.84375 C 236.58552 648.84975 229.8125 648.6875 229.8125 648.6875 C 229.8125 648.6875 228.54136 650.34594 227.71875 652.4375 C 227.17148 653.82895 226.92798 655.28052 227.6875 657.0625 C 228.33703 666.72257 254.3125 665.875 254.3125 665.875 C 254.3125 665.875 254.96308 666.5047 251.71875 667.21875 C 248.20514 667.99205 240.7829 668.96634 241.03125 671.625 C 241.36413 675.18959 241.78485 674.76938 245.28125 675.71875 C 248.24255 676.52282 245.85182 679.52528 248.78125 681.3125 C 251.71069 683.09902 254.13212 681.53498 252.625 682.59375 C 249.50155 684.78774 254.01697 685.28044 263.28125 686.34375 C 272.54553 687.40706 275.31394 687.13178 288.59375 678.65625 C 297.53292 675.40336 309.21852 679.47134 318.59375 675.0625 C 329.01548 669.87959 322.53599 663.46678 320.53125 651.96875 C 320.14749 649.76721 323.37975 646.99068 324.25 645.28125 C 325.37451 643.07235 324.00689 640.82992 323.15625 636.21875 C 321.55154 627.51866 319.6471 617.85013 320.5 612 C 323.73619 589.80008 328.90083 587.34714 326.84375 566.15625 C 328.13748 554.18925 342.26918 568.12964 369.4375 565.21875 C 396.60582 562.30786 383.64563 560.03269 403.375 552.59375 C 423.10438 545.15481 416.65016 545.78578 427 536.40625 C 427 536.40625 432.82044 532.21555 440.90625 527.6875 C 448.99206 523.15945 444.46091 522.1905 442.84375 513.78125 C 441.22659 505.37201 436.70163 507.62181 440.90625 503.09375 C 445.11087 498.5657 448.01743 500.82487 463.21875 493.0625 C 478.42008 485.30012 468.39687 485.63892 467.75 476.90625 C 467.10314 468.17357 462.89686 451.36066 462.25 434.21875 C 461.65377 418.41876 449.2935 404.82966 446.59375 401.53125 L 448.34375 402.375 C 448.34375 402.375 438.33591 390.878 436.71875 382.46875 C 435.10159 374.05951 421.8093 344.61706 417.28125 336.53125 C 412.75319 328.44544 405.64687 310.99217 405 309.375 C 405 309.375 404.99835 309.04362 399.5 301.28125 C 394.00165 293.51887 388.18585 280.90151 382.6875 277.34375 C 377.18915 273.786 372.66398 264.72648 367.8125 259.875 C 362.96101 255.02351 358.4312 252.1281 355.84375 250.1875 C 353.25629 248.24691 349.36242 244.34684 344.1875 242.40625 C 327.50085 238.84197 333.75832 241.75688 326.09375 239.8125 C 326.09375 239.8125 325.44988 239.50299 317.6875 231.09375 C 309.92512 222.68451 323.8125 232.375 323.8125 232.375 C 329.51765 234.8427 333.4145 239.05146 340 238.21875 C 355.32835 236.28055 351.83042 226.28917 354.8125 219.53125 C 354.8125 219.53125 345.62896 240.35159 332.5625 226.25 C 330.94534 224.63283 329.3125 218.15625 329.3125 218.15625 C 329.3125 218.15625 333.52196 220.41564 339.34375 221.0625 C 351.38386 221.0441 348.90593 208.45662 341.625 202.625 C 340.84512 201.87226 340.4836 201.54256 340.40625 201.5 C 340.55262 201.90886 347.41427 210.27497 340.53125 214.375 C 336.10706 217.01038 334.80777 211.9967 331.25 201 C 327.69225 190.0033 329.33272 190.01228 323.1875 175.78125 C 317.04229 161.55033 319.61087 162.52331 315.40625 154.4375 C 311.20163 146.35169 309.92646 148.28744 303.78125 144.40625 C 303.78125 144.40625 301.51712 141.19524 297.3125 136.34375 C 293.10788 131.49226 291.17647 131.81714 285.03125 128.90625 C 278.88604 125.99536 281.77187 125.00145 281.125 117.5625 C 280.47814 110.12356 281.12964 103.66553 278.21875 97.84375 C 275.30786 92.021966 272.71555 82.320128 268.1875 71 C 263.65944 59.679869 256.8748 50.606023 243.9375 36.375 C 234.12572 25.582043 232.10033 24.853004 224.65625 21.03125 C 218.84779 15.834901 213.19597 12.645028 208.125 12.40625 C 206.45659 11.818377 205.19526 11.611021 204.0625 11.6875 C 201.9832 11.82788 200.31704 12.828322 197.46875 13.75 C 197.52785 13.507556 197.59131 13.285255 197.65625 13.03125 C 198.73718 8.8034289 197.97638 4.3802362 195.65625 1.375 C 195.09722 0.65092774 194.77572 0.2705728 194.4375 0.3125 z M 82.59375 229.15625 C 83.53231 231.05952 84.65933 232.87197 85.59375 234.3125 C 89.41081 240.197 96.67579 244.00059 104.25 247.40625 C 98.24805 249.09719 92.0567 251.64927 86 255.0625 C 73.83056 261.92056 64.408191 270.97556 58.90625 280.21875 C 58.73548 279.77285 58.564435 279.32067 58.40625 278.875 C 54.09584 266.73085 54.707711 255.12745 59.15625 246.125 C 63.555811 237.22168 71.68707 230.89271 82.59375 229.15625 z "
       transform="translate(38.684848,-1.3448239)"
       id="path2900" />
  </g>
</svg>
